<?xml version="1.0" encoding="UTF-8"?>
<svg width="67px" height="38px" viewBox="0 0 67 38" version="1.1" xmlns="http://www.w3.org/2000/svg" xmlns:xlink="http://www.w3.org/1999/xlink">
    <!-- Generator: Sketch 54.1 (76490) - https://sketchapp.com -->
    <title>Group 2</title>
    <desc>Created with Sketch.</desc>
    <defs>
        <linearGradient x1="65.7179952%" y1="46.8024847%" x2="36.9488415%" y2="50.7007707%" id="linearGradient-1">
            <stop stop-color="#71C1FF" offset="0%"></stop>
            <stop stop-color="#FFCB50" offset="100%"></stop>
        </linearGradient>
        <radialGradient cx="66.9105115%" cy="25.4307512%" fx="66.9105115%" fy="25.4307512%" r="87.9860994%" gradientTransform="translate(0.669105,0.254308),scale(0.909091,1.000000),rotate(122.057949),translate(-0.669105,-0.254308)" id="radialGradient-2">
            <stop stop-color="#16AF35" offset="0%"></stop>
            <stop stop-color="#37CE51" offset="100%"></stop>
        </radialGradient>
        <linearGradient x1="65.7179952%" y1="46.7856117%" x2="36.9488415%" y2="50.7044687%" id="linearGradient-3">
            <stop stop-color="#8ECDFD" offset="0%"></stop>
            <stop stop-color="#FFCB50" offset="100%"></stop>
        </linearGradient>
        <path d="M57,34.5 C65.8742083,34.5 65,16 50.0950305,18.9731413 C52.369021,10.160254 44.72438,6 39.7872177,8 C37.4546173,5 37.4546173,5 31.5,5 C15.7598846,5 3,16.4167389 3,30.5 C3,36.9159727 51.5243745,34.5342383 57,34.5 Z" id="path-4"></path>
        <filter x="-11.7%" y="-30.0%" width="123.4%" height="146.7%" filterUnits="objectBoundingBox" id="filter-5">
            <feOffset dx="0" dy="-2" in="SourceAlpha" result="shadowOffsetOuter1"></feOffset>
            <feGaussianBlur stdDeviation="2" in="shadowOffsetOuter1" result="shadowBlurOuter1"></feGaussianBlur>
            <feColorMatrix values="0 0 0 0 0   0 0 0 0 0   0 0 0 0 0  0 0 0 0.2 0" type="matrix" in="shadowBlurOuter1"></feColorMatrix>
        </filter>
    </defs>
    <g id="Page-1" stroke="none" stroke-width="1" fill="none" fill-rule="evenodd">
        <g id="Desktop-HD" transform="translate(-670.000000, -479.000000)">
            <g id="Group-2" transform="translate(671.000000, 480.000000)">
                <path d="M62,28.5 C66.3813961,25 63.8362887,12.980402 52.0950305,15.9731413 C53.090564,9 46.7224239,4.67491082 41.7872177,6 C39.4546173,3 39.4546173,3 33.5,3 C17.7598846,3 5,14.4167389 5,28.5 C5,34.9159727 56.7019014,32.7322914 62,28.5 Z" id="Oval-Copy-4" fill="url(#linearGradient-1)"></path>
                <ellipse id="Oval" fill="url(#radialGradient-2)" cx="5.5" cy="24" rx="5.5" ry="5"></ellipse>
                <ellipse id="Oval-Copy" fill="url(#radialGradient-2)" cx="7.5" cy="17" rx="5.5" ry="5"></ellipse>
                <ellipse id="Oval-Copy-2" fill="url(#radialGradient-2)" cx="14.5" cy="10" rx="5.5" ry="5"></ellipse>
                <rect id="Rectangle" fill="#F7B500" transform="translate(13.184511, 13.345453) rotate(10.000000) translate(-13.184511, -13.345453) " x="8.18451103" y="11.8454525" width="10" height="3" rx="0.5"></rect>
                <rect id="Rectangle-Copy-6" fill="#F7B500" transform="translate(13.184511, 9.345453) rotate(80.000000) translate(-13.184511, -9.345453) " x="8.18451103" y="7.84545252" width="10" height="3" rx="0.5"></rect>
                <rect id="Rectangle-Copy-4" fill="#F7B500" transform="translate(6.184511, 19.345453) rotate(-20.000000) translate(-6.184511, -19.345453) " x="1.18451103" y="17.8454525" width="10" height="3" rx="0.5"></rect>
                <ellipse id="Oval-Copy-3" fill="url(#radialGradient-2)" cx="23.5" cy="6" rx="5.5" ry="5"></ellipse>
                <rect id="Rectangle-Copy-3" fill="#F7B500" transform="translate(22.799038, 6.080127) rotate(120.000000) translate(-22.799038, -6.080127) " x="17.7990381" y="4.58012702" width="10" height="3" rx="0.5"></rect>
                <ellipse id="Oval-Copy-3" fill="url(#radialGradient-2)" cx="32.5" cy="6" rx="5.5" ry="5"></ellipse>
                <rect id="Rectangle-Copy-2" fill="#F7B500" transform="translate(30.799038, 5.080127) rotate(60.000000) translate(-30.799038, -5.080127) " x="25.7990381" y="3.58012702" width="10" height="3" rx="0.5"></rect>
                <rect id="Rectangle-Copy-5" fill="#F7B500" transform="translate(21.184511, 6.345453) rotate(10.000000) translate(-21.184511, -6.345453) " x="16.184511" y="4.84545252" width="10" height="3" rx="0.5"></rect>
                <g id="Oval">
                    <use fill="black" fill-opacity="1" filter="url(#filter-5)" xlink:href="#path-4"></use>
                    <use fill="url(#linearGradient-3)" fill-rule="evenodd" xlink:href="#path-4"></use>
                </g>
                <path d="M24.5,26.5 L29,27.375" id="Line-6" stroke="#2CC4FF" opacity="0.2" style="mix-blend-mode: exclusion;" stroke-linecap="round"></path>
                <path d="M23.5,20.5 L26.5980762,19.3454525" id="Line-7" stroke="#2CC4FF" opacity="0.2" style="mix-blend-mode: exclusion;" stroke-linecap="round"></path>
                <path d="M27,11.160254 L30.7990381,13" id="Line-8" stroke="#2CC4FF" opacity="0.2" style="mix-blend-mode: exclusion;" stroke-linecap="round"></path>
                <path d="M30.7990381,23 L34.5059322,20.4227263" id="Line-9" stroke="#2CC4FF" opacity="0.2" style="mix-blend-mode: exclusion;" stroke-linecap="round"></path>
                <path d="M32.5,32 L36,30" id="Line-10" stroke="#2CC4FF" opacity="0.2" style="mix-blend-mode: exclusion;" stroke-linecap="round"></path>
                <path d="M18,26.5 L15.5299635,30" id="Line-2" stroke="#2CC4FF" opacity="0.2" style="mix-blend-mode: exclusion;" stroke-linecap="round"></path>
                <path d="M7.18451103,28.25 L10.8390585,26.5" id="Line-3" stroke="#2CC4FF" opacity="0.2" style="mix-blend-mode: exclusion;" stroke-linecap="round"></path>
                <path d="M7.5,19.3454525 L10.8390585,21.5" id="Line-4" stroke="#2CC4FF" opacity="0.2" style="mix-blend-mode: exclusion;" stroke-linecap="round"></path>
                <path d="M21.184511,11.160254 L20.5,14.5" id="Line-5" stroke="#2CC4FF" opacity="0.2" style="mix-blend-mode: exclusion;" stroke-linecap="round"></path>
                <path d="M14,18.5299635 L18,20.5" id="Line" stroke="#2CC4FF" opacity="0.2" style="mix-blend-mode: exclusion;" stroke-linecap="round"></path>
            </g>
        </g>
    </g>
</svg>